<svg xmlns="http://www.w3.org/2000/svg" width="684" height="774">
  <style type="text/css">
    @namespace "http://www.w3.org/2000/svg";

    .line {
    fill: none;
    stroke: #332900;
    }

    filled {
    fill: #332900;
    stroke: none;
    }

    text {
    font-family: Verdana, sans-serif;
    font-size: 12px;
    fill: #4D3D00;
    }

    text.terminal {
    font-family: Verdana, Sans-serif;
    font-size: 12px;
    fill: #4D3D00;
    }

    rect, circle, polygon {
    fill: #332900;
    stroke: #332900;
    }

    .terminal {
    fill: #FFCC00;
    stroke: #332900;
    }

    .nonterminal {
    fill: #FFEB99;
    stroke: #332900;
    }

    .text {
    fill: none;
    stroke: none;
    }

    .regexp {
    fill: #FFF5CC;
    stroke: #332900;
    }
  </style>
  <polygon points="9 183 1 179 1 187"/>
  <polygon points="17 183 9 179 9 187"/>
  <rect width="28" height="32" x="51" y="135" rx="10"/>
  <rect width="28" height="32" x="49" y="133" class="terminal" rx="10"/>
  <text x="59" y="153" class="terminal">
    $
  </text>
  <rect width="32" height="32" x="51" y="91" rx="10"/>
  <rect width="32" height="32" x="49" y="89" class="terminal" rx="10"/>
  <text x="59" y="109" class="terminal">
    @
  </text>
  <rect width="34" height="32" x="51" y="47" rx="10"/>
  <rect width="34" height="32" x="49" y="45" class="terminal" rx="10"/>
  <text x="59" y="65" class="terminal">
    %
  </text>
  <rect width="30" height="32" x="51" y="3" rx="10"/>
  <rect width="30" height="32" x="49" y="1" class="terminal" rx="10"/>
  <text x="59" y="21" class="terminal">
    &amp;
  </text>
  <rect width="28" height="32" x="185" y="169" rx="10"/>
  <rect width="28" height="32" x="183" y="167" class="terminal" rx="10"/>
  <text x="193" y="187" class="terminal">
    g
  </text>
  <rect width="32" height="32" x="185" y="213" rx="10"/>
  <rect width="32" height="32" x="183" y="211" class="terminal" rx="10"/>
  <text x="193" y="231" class="terminal">
    m
  </text>
  <rect width="28" height="32" x="185" y="257" rx="10"/>
  <rect width="28" height="32" x="183" y="255" class="terminal" rx="10"/>
  <text x="193" y="275" class="terminal">
    p
  </text>
  <rect width="24" height="32" x="185" y="301" rx="10"/>
  <rect width="24" height="32" x="183" y="299" class="terminal" rx="10"/>
  <text x="193" y="319" class="terminal">
    t
  </text>
  <rect width="28" height="32" x="257" y="169" rx="10"/>
  <rect width="28" height="32" x="255" y="167" class="terminal" rx="10"/>
  <text x="265" y="187" class="terminal">
    _
  </text>
  <rect width="28" height="32" x="365" y="169" rx="10"/>
  <rect width="28" height="32" x="363" y="167" class="terminal" rx="10"/>
  <text x="373" y="187" class="terminal">
    a
  </text>
  <rect width="28" height="32" x="365" y="213" rx="10"/>
  <rect width="28" height="32" x="363" y="211" class="terminal" rx="10"/>
  <text x="373" y="231" class="terminal">
    b
  </text>
  <rect width="26" height="32" x="365" y="257" rx="10"/>
  <rect width="26" height="32" x="363" y="255" class="terminal" rx="10"/>
  <text x="373" y="275" class="terminal">
    c
  </text>
  <rect width="28" height="32" x="365" y="301" rx="10"/>
  <rect width="28" height="32" x="363" y="299" class="terminal" rx="10"/>
  <text x="373" y="319" class="terminal">
    d
  </text>
  <rect width="24" height="32" x="365" y="345" rx="10"/>
  <rect width="24" height="32" x="363" y="343" class="terminal" rx="10"/>
  <text x="373" y="363" class="terminal">
    f
  </text>
  <rect width="24" height="32" x="365" y="389" rx="10"/>
  <rect width="24" height="32" x="363" y="387" class="terminal" rx="10"/>
  <text x="373" y="407" class="terminal">
    i
  </text>
  <rect width="24" height="32" x="365" y="433" rx="10"/>
  <rect width="24" height="32" x="363" y="431" class="terminal" rx="10"/>
  <text x="373" y="451" class="terminal">
    j
  </text>
  <rect width="32" height="32" x="365" y="477" rx="10"/>
  <rect width="32" height="32" x="363" y="475" class="terminal" rx="10"/>
  <text x="373" y="495" class="terminal">
    m
  </text>
  <rect width="28" height="32" x="365" y="521" rx="10"/>
  <rect width="28" height="32" x="363" y="519" class="terminal" rx="10"/>
  <text x="373" y="539" class="terminal">
    n
  </text>
  <rect width="28" height="32" x="365" y="565" rx="10"/>
  <rect width="28" height="32" x="363" y="563" class="terminal" rx="10"/>
  <text x="373" y="583" class="terminal">
    o
  </text>
  <rect width="26" height="32" x="365" y="609" rx="10"/>
  <rect width="26" height="32" x="363" y="607" class="terminal" rx="10"/>
  <text x="373" y="627" class="terminal">
    r
  </text>
  <rect width="26" height="32" x="365" y="653" rx="10"/>
  <rect width="26" height="32" x="363" y="651" class="terminal" rx="10"/>
  <text x="373" y="671" class="terminal">
    s
  </text>
  <rect width="28" height="32" x="365" y="697" rx="10"/>
  <rect width="28" height="32" x="363" y="695" class="terminal" rx="10"/>
  <text x="373" y="715" class="terminal">
    u
  </text>
  <rect width="28" height="32" x="365" y="741" rx="10"/>
  <rect width="28" height="32" x="363" y="739" class="terminal" rx="10"/>
  <text x="373" y="759" class="terminal">
    $
  </text>
  <polygon points="437 185 444 169 490 169 497 185 490 201 444 201"/>
  <polygon points="435 183 442 167 488 167 495 183 488 199 442 199" class="regexp"/>
  <text x="450" y="187" class="regexp">
    [A-Z]
  </text>
  <polygon points="557 185 564 169 610 169 617 185 610 201 564 201"/>
  <polygon points="555 183 562 167 608 167 615 183 608 199 562 199" class="regexp"/>
  <text x="570" y="187" class="regexp">
    [a-z]
  </text>
  <polygon points="557 229 564 213 610 213 617 229 610 245 564 245"/>
  <polygon points="555 227 562 211 608 211 615 227 608 243 562 243" class="regexp"/>
  <text x="570" y="231" class="regexp">
    [A-Z]
  </text>
  <polygon points="557 273 564 257 610 257 617 273 610 289 564 289"/>
  <polygon points="555 271 562 255 608 255 615 271 608 287 562 287" class="regexp"/>
  <text x="570" y="275" class="regexp">
    [0-9]
  </text>
  <svg:path d="m17 183 h2 m20 0 h10 m0 0 h44 m-74 0 l20 0 m-1 0 q-9 0 -9 -10 l0 -14 q0 -10 10 -10 m54 34 l20 0 m-20 0 q10 0 10 -10 l0 -14 q0 -10 -10 -10 m-54 0 h10 m28 0 h10 m0 0 h6 m-64 10 l0 -44 q0 -10 10 -10 m64 54 l0 -44 q0 -10 -10 -10 m-54 0 h10 m32 0 h10 m0 0 h2 m-64 10 l0 -44 q0 -10 10 -10 m64 54 l0 -44 q0 -10 -10 -10 m-54 0 h10 m34 0 h10 m-64 10 l0 -44 q0 -10 10 -10 m64 54 l0 -44 q0 -10 -10 -10 m-54 0 h10 m30 0 h10 m0 0 h4 m80 166 h10 m28 0 h10 m0 0 h4 m-72 0 h20 m52 0 h20 m-92 0 q10 0 10 10 m72 0 q0 -10 10 -10 m-82 10 v24 m72 0 v-24 m-72 24 q0 10 10 10 m52 0 q10 0 10 -10 m-62 10 h10 m32 0 h10 m-62 -10 v20 m72 0 v-20 m-72 20 v24 m72 0 v-24 m-72 24 q0 10 10 10 m52 0 q10 0 10 -10 m-62 10 h10 m28 0 h10 m0 0 h4 m-62 -10 v20 m72 0 v-20 m-72 20 v24 m72 0 v-24 m-72 24 q0 10 10 10 m52 0 q10 0 10 -10 m-62 10 h10 m24 0 h10 m0 0 h8 m20 -132 h10 m28 0 h10 m-160 0 l20 0 m-1 0 q-9 0 -9 -10 l0 -12 q0 -10 10 -10 m140 32 l20 0 m-20 0 q10 0 10 -10 l0 -12 q0 -10 -10 -10 m-140 0 h10 m0 0 h130 m-180 32 h20 m180 0 h20 m-220 0 q10 0 10 10 m200 0 q0 -10 10 -10 m-210 10 v146 m200 0 v-146 m-200 146 q0 10 10 10 m180 0 q10 0 10 -10 m-190 10 h10 m0 0 h170 m40 -166 h10 m28 0 h10 m0 0 h4 m-72 0 h20 m52 0 h20 m-92 0 q10 0 10 10 m72 0 q0 -10 10 -10 m-82 10 v24 m72 0 v-24 m-72 24 q0 10 10 10 m52 0 q10 0 10 -10 m-62 10 h10 m28 0 h10 m0 0 h4 m-62 -10 v20 m72 0 v-20 m-72 20 v24 m72 0 v-24 m-72 24 q0 10 10 10 m52 0 q10 0 10 -10 m-62 10 h10 m26 0 h10 m0 0 h6 m-62 -10 v20 m72 0 v-20 m-72 20 v24 m72 0 v-24 m-72 24 q0 10 10 10 m52 0 q10 0 10 -10 m-62 10 h10 m28 0 h10 m0 0 h4 m-62 -10 v20 m72 0 v-20 m-72 20 v24 m72 0 v-24 m-72 24 q0 10 10 10 m52 0 q10 0 10 -10 m-62 10 h10 m24 0 h10 m0 0 h8 m-62 -10 v20 m72 0 v-20 m-72 20 v24 m72 0 v-24 m-72 24 q0 10 10 10 m52 0 q10 0 10 -10 m-62 10 h10 m24 0 h10 m0 0 h8 m-62 -10 v20 m72 0 v-20 m-72 20 v24 m72 0 v-24 m-72 24 q0 10 10 10 m52 0 q10 0 10 -10 m-62 10 h10 m24 0 h10 m0 0 h8 m-62 -10 v20 m72 0 v-20 m-72 20 v24 m72 0 v-24 m-72 24 q0 10 10 10 m52 0 q10 0 10 -10 m-62 10 h10 m32 0 h10 m-62 -10 v20 m72 0 v-20 m-72 20 v24 m72 0 v-24 m-72 24 q0 10 10 10 m52 0 q10 0 10 -10 m-62 10 h10 m28 0 h10 m0 0 h4 m-62 -10 v20 m72 0 v-20 m-72 20 v24 m72 0 v-24 m-72 24 q0 10 10 10 m52 0 q10 0 10 -10 m-62 10 h10 m28 0 h10 m0 0 h4 m-62 -10 v20 m72 0 v-20 m-72 20 v24 m72 0 v-24 m-72 24 q0 10 10 10 m52 0 q10 0 10 -10 m-62 10 h10 m26 0 h10 m0 0 h6 m-62 -10 v20 m72 0 v-20 m-72 20 v24 m72 0 v-24 m-72 24 q0 10 10 10 m52 0 q10 0 10 -10 m-62 10 h10 m26 0 h10 m0 0 h6 m-62 -10 v20 m72 0 v-20 m-72 20 v24 m72 0 v-24 m-72 24 q0 10 10 10 m52 0 q10 0 10 -10 m-62 10 h10 m28 0 h10 m0 0 h4 m-62 -10 v20 m72 0 v-20 m-72 20 v24 m72 0 v-24 m-72 24 q0 10 10 10 m52 0 q10 0 10 -10 m-62 10 h10 m28 0 h10 m0 0 h4 m20 -572 h10 m60 0 h10 m40 0 h10 m60 0 h10 m-100 0 h20 m80 0 h20 m-120 0 q10 0 10 10 m100 0 q0 -10 10 -10 m-110 10 v24 m100 0 v-24 m-100 24 q0 10 10 10 m80 0 q10 0 10 -10 m-90 10 h10 m60 0 h10 m-90 -10 v20 m100 0 v-20 m-100 20 v24 m100 0 v-24 m-100 24 q0 10 10 10 m80 0 q10 0 10 -10 m-90 10 h10 m60 0 h10 m-120 -88 l20 0 m-1 0 q-9 0 -9 -10 l0 -12 q0 -10 10 -10 m120 32 l20 0 m-20 0 q10 0 10 -10 l0 -12 q0 -10 -10 -10 m-120 0 h10 m0 0 h110 m23 32 h-3" xmlns:svg="http://www.w3.org/2000/svg" class="line"/>
  <polygon points="675 183 683 179 683 187"/>
  <polygon points="675 183 667 179 667 187"/>
</svg>