<svg xmlns="http://www.w3.org/2000/svg" xmlns:xlink="http://www.w3.org/1999/xlink" width="546" height="448">
    <style type="text/css">
        @namespace "http://www.w3.org/2000/svg";

        .line {
          fill: none;
          stroke: #332900;
        }

        filled {
          fill: #332900;
          stroke: none;
        }

        text {
          font-family: Verdana, sans-serif;
          font-size: 12px;
          fill: #4D3D00;
        }

        text.terminal {
          font-family: Verdana, Sans-serif;
          font-size: 12px;
          fill: #4D3D00;
        }

        rect, circle, polygon {
          fill: #332900;
          stroke: #332900;
        }

        .terminal {
          fill: #FFCC00;
          stroke: #332900;
        }

        .nonterminal {
          fill: #FFEB99;
          stroke: #332900;
        }

        .text {
          fill: none;
          stroke: none;
        }

        .regexp {
          fill: #FFF5CC;
          stroke: #332900;
        }
  </style>
  <path d="M9 33l-8-4v8m16-4l-8-4v8" class="filled"/>
  <path d="M17 33h2" class="line"/>
  <rect width="28" height="32" x="51" y="19" rx="10"/>
  <rect width="28" height="32" x="49" y="17" class="terminal" rx="10"/>
  <text x="59" y="37" class="terminal">
    g
  </text>
  <path d="M39 33h10m28 0h10m0 0h4m-72 0h20m52 0h20m-92 0q10 0 10 10m72 0q0-10 10-10M29 43v24m72 0V43M29 67q0 10 10 10m52 0q10 0 10-10" class="line"/>
  <rect width="32" height="32" x="51" y="63" rx="10"/>
  <rect width="32" height="32" x="49" y="61" class="terminal" rx="10"/>
  <text x="59" y="81" class="terminal">
    m
  </text>
  <path d="M39 77h10m32 0h10M29 67v20m72 0V67M29 87v24m72 0V87m-72 24q0 10 10 10m52 0q10 0 10-10" class="line"/>
  <rect width="28" height="32" x="51" y="107" rx="10"/>
  <rect width="28" height="32" x="49" y="105" class="terminal" rx="10"/>
  <text x="59" y="125" class="terminal">
    p
  </text>
  <path d="M39 121h10m28 0h10m0 0h4m-62-10v20m72 0v-20m-72 20v24m72 0v-24m-72 24q0 10 10 10m52 0q10 0 10-10" class="line"/>
  <rect width="24" height="32" x="51" y="151" rx="10"/>
  <rect width="24" height="32" x="49" y="149" class="terminal" rx="10"/>
  <text x="59" y="169" class="terminal">
    t
  </text>
  <path d="M39 165h10m24 0h10m0 0h8" class="line"/>
  <a xlink:href="#_" xlink:title="_">
    <path d="M123 19h28v32h-28z"/>
    <path d="M121 17h28v32h-28z" class="nonterminal"/>
    <text x="131" y="37" class="nonterminal">
      _
    </text>
  </a>
  <path d="M111 33h10m28 0h10" class="line"/>
  <rect width="28" height="32" x="191" y="19" rx="10"/>
  <rect width="28" height="32" x="189" y="17" class="terminal" rx="10"/>
  <text x="199" y="37" class="terminal">
    a
  </text>
  <path d="M179 33h10m28 0h10m-68 0h20m48 0h20m-88 0q10 0 10 10m68 0q0-10 10-10m-78 10v24m68 0V43m-68 24q0 10 10 10m48 0q10 0 10-10" class="line"/>
  <rect width="28" height="32" x="191" y="63" rx="10"/>
  <rect width="28" height="32" x="189" y="61" class="terminal" rx="10"/>
  <text x="199" y="81" class="terminal">
    b
  </text>
  <path d="M179 77h10m28 0h10m-58-10v20m68 0V67m-68 20v24m68 0V87m-68 24q0 10 10 10m48 0q10 0 10-10" class="line"/>
  <rect width="28" height="32" x="191" y="107" rx="10"/>
  <rect width="28" height="32" x="189" y="105" class="terminal" rx="10"/>
  <text x="199" y="125" class="terminal">
    d
  </text>
  <path d="M179 121h10m28 0h10m-58-10v20m68 0v-20m-68 20v24m68 0v-24m-68 24q0 10 10 10m48 0q10 0 10-10" class="line"/>
  <rect width="28" height="32" x="191" y="151" rx="10"/>
  <rect width="28" height="32" x="189" y="149" class="terminal" rx="10"/>
  <text x="199" y="169" class="terminal">
    e
  </text>
  <path d="M179 165h10m28 0h10m-58-10v20m68 0v-20m-68 20v24m68 0v-24m-68 24q0 10 10 10m48 0q10 0 10-10" class="line"/>
  <rect width="24" height="32" x="191" y="195" rx="10"/>
  <rect width="24" height="32" x="189" y="193" class="terminal" rx="10"/>
  <text x="199" y="213" class="terminal">
    i
  </text>
  <path d="M179 209h10m24 0h10m0 0h4m-58-10v20m68 0v-20m-68 20v24m68 0v-24m-68 24q0 10 10 10m48 0q10 0 10-10" class="line"/>
  <rect width="28" height="32" x="191" y="239" rx="10"/>
  <rect width="28" height="32" x="189" y="237" class="terminal" rx="10"/>
  <text x="199" y="257" class="terminal">
    n
  </text>
  <path d="M179 253h10m28 0h10m-58-10v20m68 0v-20m-68 20v24m68 0v-24m-68 24q0 10 10 10m48 0q10 0 10-10" class="line"/>
  <rect width="28" height="32" x="191" y="283" rx="10"/>
  <rect width="28" height="32" x="189" y="281" class="terminal" rx="10"/>
  <text x="199" y="301" class="terminal">
    o
  </text>
  <path d="M179 297h10m28 0h10m-58-10v20m68 0v-20m-68 20v24m68 0v-24m-68 24q0 10 10 10m48 0q10 0 10-10" class="line"/>
  <rect width="26" height="32" x="191" y="327" rx="10"/>
  <rect width="26" height="32" x="189" y="325" class="terminal" rx="10"/>
  <text x="199" y="345" class="terminal">
    r
  </text>
  <path d="M179 341h10m26 0h10m0 0h2m-58-10v20m68 0v-20m-68 20v24m68 0v-24m-68 24q0 10 10 10m48 0q10 0 10-10" class="line"/>
  <rect width="26" height="32" x="191" y="371" rx="10"/>
  <rect width="26" height="32" x="189" y="369" class="terminal" rx="10"/>
  <text x="199" y="389" class="terminal">
    s
  </text>
  <path d="M179 385h10m26 0h10m0 0h2m-58-10v20m68 0v-20m-68 20v24m68 0v-24m-68 24q0 10 10 10m48 0q10 0 10-10" class="line"/>
  <rect width="28" height="32" x="191" y="415" rx="10"/>
  <rect width="28" height="32" x="189" y="413" class="terminal" rx="10"/>
  <text x="199" y="433" class="terminal">
    u
  </text>
  <path d="M179 429h10m28 0h10" class="line"/>
  <path d="M257 35l7-16h46l7 16-7 16h-46"/>
  <path d="M257 33l7-16h46l7 16-7 16h-46" class="regexp"/>
  <text x="272" y="37" class="regexp">
    [A-Z]
  </text>
  <path d="M247 33h10m60 0h10" class="line"/>
  <path d="M397 35l7-16h46l7 16-7 16h-46"/>
  <path d="M397 33l7-16h46l7 16-7 16h-46 " class="regexp"/>
  <text x="412" y="37" class="regexp">
    [a-z]
  </text>
  <path d="M387 33h10m60 0h10m-100 0h20m80 0h20m-120 0q10 0 10 10m100 0q0-10 10-10M377 43v24m100 0V43M377 67q0 10 10 10m80 0q10 0 10-10" class="line"/>
  <path d="M397 79l7-16h46l7 16-7 16h-46"/>
  <path d="M397 77l7-16h46l7 16-7 16h-46" class="regexp"/>
  <text x="412" y="81" class="regexp">
    [A-Z]
  </text>
  <path d="M387 77h10m60 0h10m-90-10v20m100 0V67M377 87v24m100 0V87m-100 24q0 10 10 10m80 0q10 0 10-10" class="line"/>
  <path d="M397 123l7-16h46l7 16-7 16h-46"/>
  <path d="M397 121l7-16h46l7 16-7 16h-46" class="regexp"/>
  <text x="412" y="125" class="regexp">
    [0-9]
  </text>
  <path d="M387 121h10m60 0h10M347 33h20m-1 0q-9 0-9-10V11q0-10 10-10m120 32h20m-20 0q10 0 10-10V11q0-10-10-10M367 1h10m0 0h110M327 33h20m160 0h20m-200 0q10 0 10 10m180 0q0-10 10-10M337 43v102m180 0V43M337 145q0 10 10 10m160 0q10 0 10-10m-170 10h10m0 0h150m23-122h-3" class="line"/>
  <path d="M537 33l8-4v8m-8-4l-8-4v8" class="filled"/>
</svg>
